<svg id="SVGDoc" width="24" height="21" xmlns="http://www.w3.org/2000/svg" version="1.1"><path d="M1.625 9.281h20.687a1 1 0 0 1 1 1v.438a1 1 0 0 1-1 1H1.625a1 1 0 0 1-1-1v-.438a1 1 0 0 1 1-1z" fill="#131313"/><path d="M.57 10.04c.316-.316 1.829-.316 2.145 0l9.31 9.31c.316.316-.684.829-1 1.145a.81.81 0 0 1-1.146 0l-9.31-9.31a.81.81 0 0 1 0-1.145z" fill="#131313"/><path d="M.57 10.965c.316.317 1.829.317 2.145 0l9.31-9.31c.316-.316-.684-.828-1-1.145a.81.81 0 0 0-1.146 0L.57 9.82a.81.81 0 0 0 0 1.145z" fill="#131313"/></svg>