<svg id="SVGDoc" width="15" height="15" xmlns="http://www.w3.org/2000/svg" version="1.1"><path d="M12.655 4.03a.54.54 0 0 1-.54.54h-1.271a.54.54 0 0 1-.54-.54V2.76c0-.299.241-.54.54-.54h1.27a.54.54 0 0 1 .54.54zm0 8.173a.54.54 0 0 1-.54.54H2.672a.54.54 0 0 1-.54-.54V6.312h1.11c-.052.184-.09.374-.118.568a3.96 3.96 0 0 0-.047.6 4.317 4.317 0 1 0 8.633 0 3.96 3.96 0 0 0-.048-.6 4.44 4.44 0 0 0-.117-.568h1.11zm-5.262-7.42a2.698 2.698 0 1 1 .001 5.396 2.698 2.698 0 0 1 0-5.396zM12.79.466H1.997C1.103.466.378 1.19.378 2.085v10.792c0 .894.725 1.62 1.619 1.62H12.79a1.62 1.62 0 0 0 1.618-1.62V2.085c0-.895-.724-1.62-1.618-1.62z" fill="#fff"/></svg>