<svg version="1.1" id="Слой_1" xmlns="http://www.w3.org/2000/svg" x="0" y="0" viewBox="120 382 585 75" xml:space="preserve"><path d="M202.7 384h-57.4c-12.9 0-23.3 9.9-23.3 22.7v24.4c0 12.9 10.4 23.8 23.3 23.8h57.4c12.9 0 23.3-11 23.3-23.8v-24.4c0-12.8-10.4-22.7-23.3-22.7zm10.3 45.5c0 2-1 3.6-3 4.2v6.4c0 .8-.7 1.5-1.5 1.5s-1.5-.7-1.5-1.5v-6.4c-2-.6-3-2.3-3-4.2v-18.7l-27.1 29.4c-1.5 1.7-4 1.9-5.8.6-.1 0-.1-.1-.2-.1-.1-.1-.4-.3-.4-.4-.9-.8-1.4-2-1.4-3.3v-26.2L142 440.1c-1.5 1.7-4.1 1.9-5.9.6-.1 0-.1-.1-.2-.1-.1-.1-.4-.3-.4-.4-.9-.8-1.4-2-1.4-3.3v-30.3c0-2 1-3.6 3-4.2V396c0-.8.7-1.5 1.5-1.5s1.5.7 1.5 1.5v6.4c2 .6 3 2.3 3 4.2v18.9s27.1-29.5 27.3-29.6c.8-.8 2-1.3 3.2-1.3 2.5 0 4.5 2 4.5 4.5v26.5l26.9-29.2c.8-1.1 2.1-1.8 3.6-1.8 2.5 0 4.5 2 4.5 4.5v30.4z" fill="#fbc644"/><path d="M256.8 395.3h9.3l20.1 35.2 20.2-35.2h9.2V442h-7.5v-36.2L286.9 442h-1.3l-21.3-36v36h-7.5v-46.7zm79.3 23.3c0-14.7 11.3-24.4 29.4-24.4 18.3 0 29.5 9.7 29.5 24.4S383.7 443 365.5 443c-18.1 0-29.4-9.7-29.4-24.4zm51.5 0c0-11.3-8.9-18.2-22.1-18.2-13.1 0-22 6.9-22 18.2 0 11.2 8.9 18.2 22 18.2 13.2 0 22.1-7 22.1-18.2zm30.1-23.3h7.6l37.2 37.6v-37.6h7.5V442h-7.7l-37.2-37.5V442h-7.5v-46.7zm74.9 23.3c0-14.7 11.3-24.4 29.4-24.4 18.3 0 29.5 9.7 29.5 24.4S540.2 443 522 443c-18.1 0-29.4-9.7-29.4-24.4zm51.5 0c0-11.3-8.9-18.2-22.1-18.2-13.1 0-22 6.9-22 18.2 0 11.2 8.9 18.2 22 18.2 13.2 0 22.1-7 22.1-18.2zm48.9-23.3h9.9l28.6 46.6h-8.4l-6.5-10.9H579l-6.4 10.9h-8.5l28.9-46.6zm20.1 29.6L598 399.2l-15.1 25.7h30.2zm37-29.6h21.7c16.9 0 27.2 8.1 27.2 23.3 0 15.5-10.4 23.3-27.2 23.3h-21.7v-46.6zm21.7 40.5c12.2 0 20.5-6.5 20.5-17.1 0-10.6-8.3-17.1-20.5-17.1h-14.3v34.2h14.3z"/></svg>