<svg version="1.1" id="Слой_1" xmlns="http://www.w3.org/2000/svg" x="0" y="0" viewBox="0 0 237 145.7" xml:space="preserve"><path d="M166 4.6c-1.7 0-3.1.8-4.3 2-.1.1-35.4 38.3-35.4 38.3V10.5c0-3.3-2.7-5.8-6-5.8-1.6 0-3 .7-4.2 1.7C116 6.7 80.7 45 80.7 45V20.4c0-2.6-1.3-4.7-3.9-5.5V6.6c0-1-.8-2-1.9-2s-1.9.9-1.9 2v8.3c-2.6.8-3.9 3-3.9 5.5v39.4c0 1.7.7 3.3 1.8 4.3l.5.5c.1 0 .1.1.3.1 2.3 1.6 5.7 1.3 7.7-.8l35.2-38.4v34.1c0 1.7.7 3.3 1.8 4.3l.5.5c.1 0 .1.1.3.1 2.3 1.6 5.7 1.3 7.7-.8l35.2-38.2v24.3c0 2.6 1.3 4.7 3.9 5.5v8.3c0 1 .9 1.9 1.9 1.9s1.9-.9 1.9-1.9v-8.3c2.6-.8 3.9-3 3.9-5.5V10.5c.2-3.3-2.6-5.9-5.7-5.9z" fill="#fbc644"/><path d="M.7 79.8h4.9l10.7 18.8 10.8-18.8H32v26.9h-4V85.3l-11.3 21.4H16L4.6 85.5v21.2h-4l.1-26.9zM43 92.2c0-7.8 6-13 15.7-13s15.8 5.2 15.8 13-6 15-15.8 15c-9.7 0-15.7-7.2-15.7-15zm27.5 0c0-6-4.7-9.7-11.8-9.7-7 0-11.7 3.7-11.7 9.7s4.7 11.7 11.7 11.7c7.1 0 11.8-5.7 11.8-11.7zm16-12.4h4.1l19.9 22.1V79.8h4v26.9h-4.1l-19.8-22v22h-4l-.1-26.9zm40.1 12.4c0-7.8 6-13 15.7-13s15.8 5.2 15.8 13-6 15-15.8 15c-9.7 0-15.7-7.2-15.7-15zm27.4 0c0-6-4.7-9.7-11.8-9.7-7 0-11.7 3.7-11.7 9.7s4.7 11.7 11.7 11.7c7.1 0 11.8-5.7 11.8-11.7zm26.1-12.4h5.3l15.3 26.9h-4.5l-3.4-5.8h-20.1l-3.4 5.8h-4.5l15.3-26.9zm10.7 15.7l-8-13.7-8.1 13.7h16.1zm19.8-15.7h11.6c9 0 14.5 4.3 14.5 12.4 0 8.2-5.5 14.4-14.5 14.4h-11.6V79.8zm11.6 23.5c6.5 0 10.9-5.5 10.9-11.1s-4.4-9.1-10.9-9.1h-7.6v20.3l7.6-.1zM59.5 130.2h-3.9v4.1H54v-9.6h6.1v1.3h-4.5v2.9h3.9v1.3zm3.6.1v4h-1.6v-9.6h3.3c1.1 0 1.9.2 2.5.7.6.5.9 1.2.9 2.1 0 .5-.1.9-.4 1.3-.3.4-.6.6-1.1.9.5.2.9.5 1.2.8.2.4.4.9.4 1.4v.8c0 .3 0 .6.1.8.1.3.2.5.3.6v.2H67c-.2-.1-.3-.4-.3-.7 0-.3-.1-.6-.1-.9v-.8c0-.5-.1-.9-.4-1.2-.3-.3-.7-.4-1.2-.4h-1.9zm0-1.3h1.6c.6 0 1.1-.1 1.4-.4.3-.2.4-.6.4-1.1 0-.5-.1-.9-.4-1.1s-.7-.4-1.3-.4h-1.7v3zm14.6 1.3c0 1.2-.4 2.1-1.1 2.9s-1.7 1.2-2.9 1.2c-1.1 0-2.1-.4-2.8-1.2s-1.1-1.7-1.1-2.9v-1.7c0-1.2.4-2.1 1.1-2.9.7-.8 1.7-1.2 2.8-1.2 1.2 0 2.1.4 2.9 1.2s1.1 1.7 1.1 2.9v1.7zm-1.6-1.7c0-.8-.2-1.5-.6-2-.4-.5-1-.8-1.7-.8s-1.3.3-1.7.8c-.4.5-.6 1.2-.6 2v1.7c0 .8.2 1.5.6 2 .4.5 1 .8 1.7.8s1.3-.3 1.7-.8c.4-.5.6-1.2.6-2v-1.7zm8.1 3.5l2.8-7.4h2v9.6h-1.6v-6.9l-2.6 6.9h-1.1l-2.7-7v7h-1.6v-9.6h2.1l2.7 7.4zm15.7-1.9H96v4.1h-1.6v-9.6h6.1v1.3H96v2.9h3.9v1.3zm6.7 1.8h-3.4l-.7 2.2h-1.7l3.3-9.6h1.5l3.3 9.6h-1.7l-.6-2.2zm-3-1.3h2.5l-1.2-3.8-1.3 3.8zm14 3.6H116l-4.3-6.9v6.9h-1.6v-9.6h1.6l4.3 6.9v-6.9h1.6v9.6zm7.1-2.5c0-.4-.1-.7-.4-1-.3-.3-.8-.5-1.5-.7-1-.3-1.8-.7-2.4-1.1-.6-.5-.8-1.1-.8-1.8 0-.8.3-1.4.9-1.9s1.4-.8 2.4-.8 1.9.3 2.5.8.9 1.2.9 2.1h-1.5c0-.5-.2-.9-.5-1.2s-.8-.4-1.3-.4-1 .1-1.2.4-.4.6-.4 1 .2.7.5.9c.3.2.9.5 1.6.7 1 .3 1.8.7 2.3 1.2s.8 1.1.8 1.9c0 .8-.3 1.4-.9 1.9s-1.4.7-2.5.7c-1 0-1.8-.3-2.6-.8-.7-.5-1.1-1.3-1.1-2.2h1.5c0 .6.2 1 .6 1.3.4.3.9.4 1.5.4s1-.1 1.3-.4c.1-.2.3-.6.3-1zM138 126h-3v8.3h-1.6V126h-2.9v-1.3h7.5v1.3zm8.6 4.3c0 1.2-.4 2.1-1.1 2.9s-1.7 1.2-2.9 1.2c-1.1 0-2.1-.4-2.8-1.2s-1.1-1.7-1.1-2.9v-1.7c0-1.2.4-2.1 1.1-2.9.7-.8 1.7-1.2 2.8-1.2 1.2 0 2.1.4 2.9 1.2s1.1 1.7 1.1 2.9v1.7zm-1.6-1.7c0-.8-.2-1.5-.6-2-.4-.5-1-.8-1.7-.8s-1.3.3-1.7.8c-.4.5-.6 1.2-.6 2v1.7c0 .8.2 1.5.6 2 .4.5 1 .8 1.7.8s1.3-.3 1.7-.8c.4-.5.6-1.2.6-2v-1.7zm12.1 1.6h-3.9v4.1h-1.6v-9.6h6.1v1.3h-4.5v2.9h3.9v1.3zm6.6 1.8h-3.4l-.7 2.2h-1.7l3.3-9.6h1.5l3.3 9.6h-1.7l-.6-2.2zm-2.9-1.3h2.5l-1.2-3.8-1.3 3.8zm14 3.6h-1.6l-4.3-6.9v6.9h-1.6v-9.6h1.6l4.3 6.9v-6.9h1.6v9.6zm7.1-2.5c0-.4-.1-.7-.4-1-.3-.3-.8-.5-1.5-.7-1-.3-1.8-.7-2.4-1.1-.6-.5-.8-1.1-.8-1.8 0-.8.3-1.4.9-1.9s1.4-.8 2.4-.8 1.9.3 2.5.8.9 1.2.9 2.1H182c0-.5-.2-.9-.5-1.2s-.8-.4-1.3-.4-1 .1-1.2.4-.4.6-.4 1 .2.7.5.9c.3.2.9.5 1.6.7 1 .3 1.8.7 2.3 1.2s.8 1.1.8 1.9c0 .8-.3 1.4-.9 1.9s-1.4.7-2.5.7c-1 0-1.8-.3-2.6-.8-.7-.5-1.1-1.3-1.1-2.2h1.5c0 .6.2 1 .6 1.3.4.3.9.4 1.5.4s1-.1 1.3-.4c.1-.2.3-.6.3-1z" fill="#fff"/></svg>