<svg id="SVGDoc" width="17" height="14" xmlns="http://www.w3.org/2000/svg" version="1.1"><path d="M9.063 11.166l-2.108 1.99a.589.589 0 0 1-.552.14.596.596 0 0 1-.41-.391C5.476 11.387 4.488 8.4 4.488 8.4S2.373 7.731.762 7.248a.563.563 0 0 1-.404-.52.562.562 0 0 1 .369-.544C4.321 4.854 13.112 1.556 15.967.5a.546.546 0 0 1 .542.095c.15.128.217.325.177.516-.539 2.53-1.974 9.567-2.566 12.347a.789.789 0 0 1-.493.572.806.806 0 0 1-.753-.099c-1.38-.982-3.811-2.765-3.811-2.765zM5.378 8.024l1.143 3.77.255-2.387 6.933-6.254a.189.189 0 0 0 .023-.256.193.193 0 0 0-.257-.044l-8.097 5.17z" fill="#fff"/></svg>