<svg id="SVGDoc" width="21" height="12" xmlns="http://www.w3.org/2000/svg" version="1.1"><path d="M18.368 8.193c-1.398-1.297-1.463-1.328-.26-2.89 1.494-1.938 3.447-4.421 1.72-4.421h-3.3c-.64 0-.687.36-.914.897-.825 1.945-2.392 4.465-2.988 4.08-.623-.402-.337-1.994-.29-4.36.013-.625.01-1.054-.945-1.276a6.64 6.64 0 0 0-1.5-.17c-1.883 0-3.182.79-2.444.928 1.302.242 1.177 3.06.873 4.276C7.791 7.375 5.804 3.58 4.976 1.69c-.2-.455-.26-.808-.974-.808H1.304c-.407 0-.652.133-.652.428 0 .498 2.454 5.569 4.795 8.097 2.285 2.465 4.543 2.244 6.114 2.244.504 0 .711-.337.705-.758-.026-1.59.592-2.444 1.706-1.33 1.234 1.234 1.49 2.088 2.986 2.088h2.652c.67 0 .934-.216.934-.554 0-.715-1.178-1.978-2.176-2.904z" fill="#fff"/></svg>